<mxfile host="app.diagrams.net" agent="Mozilla/5.0 (Windows NT 10.0; Win64; x64) AppleWebKit/537.36 (KHTML, like Gecko) Chrome/136.0.0.0 Safari/537.36" version="27.0.6">
  <diagram name="Pagina-1" id="lbzna3ocFwCUAVAjr_MR">
    <mxGraphModel dx="719" dy="388" grid="1" gridSize="10" guides="1" tooltips="1" connect="1" arrows="1" fold="1" page="1" pageScale="1" pageWidth="827" pageHeight="1169" math="0" shadow="0">
      <root>
        <mxCell id="0" />
        <mxCell id="1" parent="0" />
        <mxCell id="tgoyvK6NMIWigjLuXvDb-1" value="" style="shape=image;verticalLabelPosition=bottom;labelBackgroundColor=default;verticalAlign=top;aspect=fixed;imageAspect=0;image=https://cdn.vectorstock.com/i/1000v/42/21/steam-train-side-view-outline-isolated-on-white-vector-34164221.jpg;clipPath=inset(0% 3.33% 15.69% 5.67%);" vertex="1" parent="1">
          <mxGeometry x="145.38" y="80" width="308.47" height="194.34739926739928" as="geometry" />
        </mxCell>
        <mxCell id="tgoyvK6NMIWigjLuXvDb-2" value="" style="shape=image;verticalLabelPosition=bottom;labelBackgroundColor=default;verticalAlign=top;aspect=fixed;imageAspect=0;image=https://store.carvewright.com/egoods/patterns/4/4512d.png;" vertex="1" parent="1">
          <mxGeometry x="110" y="90" width="379.23" height="379.23" as="geometry" />
        </mxCell>
        <mxCell id="tgoyvK6NMIWigjLuXvDb-4" value="" style="shape=image;verticalLabelPosition=bottom;labelBackgroundColor=default;verticalAlign=top;aspect=fixed;imageAspect=0;image=https://upload.wikimedia.org/wikipedia/commons/thumb/5/51/Center_of_Gravity_symbol.svg/2048px-Center_of_Gravity_symbol.svg.png;" vertex="1" parent="1">
          <mxGeometry x="288.94" y="200" width="21.35" height="21.35" as="geometry" />
        </mxCell>
        <mxCell id="tgoyvK6NMIWigjLuXvDb-5" value="" style="endArrow=classic;html=1;rounded=0;" edge="1" parent="1">
          <mxGeometry width="50" height="50" relative="1" as="geometry">
            <mxPoint x="80" y="280" as="sourcePoint" />
            <mxPoint x="80" y="40" as="targetPoint" />
          </mxGeometry>
        </mxCell>
        <mxCell id="tgoyvK6NMIWigjLuXvDb-6" value="" style="endArrow=classic;html=1;rounded=0;" edge="1" parent="1">
          <mxGeometry width="50" height="50" relative="1" as="geometry">
            <mxPoint x="80" y="280" as="sourcePoint" />
            <mxPoint x="600" y="280" as="targetPoint" />
          </mxGeometry>
        </mxCell>
        <mxCell id="tgoyvK6NMIWigjLuXvDb-7" value="" style="endArrow=classic;html=1;rounded=0;" edge="1" parent="1">
          <mxGeometry width="50" height="50" relative="1" as="geometry">
            <mxPoint x="300" y="210" as="sourcePoint" />
            <mxPoint x="520" y="210" as="targetPoint" />
          </mxGeometry>
        </mxCell>
        <mxCell id="tgoyvK6NMIWigjLuXvDb-8" value="" style="endArrow=classic;html=1;rounded=0;" edge="1" parent="1">
          <mxGeometry width="50" height="50" relative="1" as="geometry">
            <mxPoint x="300" y="210" as="sourcePoint" />
            <mxPoint x="140" y="210" as="targetPoint" />
          </mxGeometry>
        </mxCell>
        <mxCell id="tgoyvK6NMIWigjLuXvDb-9" value="P&lt;sub&gt;engine&lt;/sub&gt;(t)" style="text;html=1;align=center;verticalAlign=middle;whiteSpace=wrap;rounded=0;" vertex="1" parent="1">
          <mxGeometry x="520" y="191.35" width="60" height="30" as="geometry" />
        </mxCell>
        <mxCell id="tgoyvK6NMIWigjLuXvDb-10" value="F&lt;sub&gt;friction&lt;/sub&gt;(t)" style="text;html=1;align=center;verticalAlign=middle;whiteSpace=wrap;rounded=0;" vertex="1" parent="1">
          <mxGeometry x="80" y="191.35" width="60" height="30" as="geometry" />
        </mxCell>
        <mxCell id="tgoyvK6NMIWigjLuXvDb-12" value="" style="endArrow=classic;html=1;rounded=0;" edge="1" parent="1">
          <mxGeometry width="50" height="50" relative="1" as="geometry">
            <mxPoint x="300" y="240" as="sourcePoint" />
            <mxPoint x="470" y="240" as="targetPoint" />
          </mxGeometry>
        </mxCell>
        <mxCell id="tgoyvK6NMIWigjLuXvDb-13" value="v(t)" style="text;html=1;align=center;verticalAlign=middle;whiteSpace=wrap;rounded=0;" vertex="1" parent="1">
          <mxGeometry x="460" y="221.35" width="60" height="30" as="geometry" />
        </mxCell>
      </root>
    </mxGraphModel>
  </diagram>
</mxfile>
